<mxfile host="app.diagrams.net" modified="2024-06-17T06:48:51.909Z" agent="Mozilla/5.0 (Windows NT 10.0; Win64; x64) AppleWebKit/537.36 (KHTML, like Gecko) Chrome/126.0.0.0 Safari/537.36" version="24.5.4" etag="lTk9fCa_ko-6eig1sjzU" type="github">
  <diagram name="Страница — 1" id="-Sls4nVwgh1wZ5mHeU1I">
    <mxGraphModel>
      <root>
        <mxCell id="0" />
        <mxCell id="1" parent="0" />
      </root>
    </mxGraphModel>
  </diagram>
</mxfile>
